<svg xmlns="http://www.w3.org/2000/svg" width="460" height="630" viewBox="0 0 460 630" fill="none"><rect x="241" width="219" height="630" rx="30" fill="url(#paint0_linear_337_5894)"></rect><path d="M117 187C117 170.431 130.431 157 147 157H306C322.569 157 336 170.431 336 187V600C336 616.569 322.569 630 306 630H147C130.431 630 117 616.569 117 600V187Z" fill="url(#paint1_linear_337_5894)"></path><path d="M0 345C0 328.431 13.4315 315 30 315H189C205.569 315 219 328.431 219 345V600C219 616.569 205.569 630 189 630H30C13.4315 630 0 616.569 0 600V345Z" fill="url(#paint2_linear_337_5894)"></path><defs><linearGradient id="paint0_linear_337_5894" x1="350.5" y1="0" x2="350.5" y2="630" gradientUnits="userSpaceOnUse"><stop stop-color="#EBBB14"></stop><stop offset="1" stop-color="#B25400"></stop></linearGradient><linearGradient id="paint1_linear_337_5894" x1="226.5" y1="157" x2="226.5" y2="630" gradientUnits="userSpaceOnUse"><stop stop-color="#F9E583"></stop><stop offset="1" stop-color="#DE9800"></stop></linearGradient><linearGradient id="paint2_linear_337_5894" x1="109.5" y1="315" x2="109.5" y2="630" gradientUnits="userSpaceOnUse"><stop stop-color="#F9E68B"></stop><stop offset="1" stop-color="#F3CD32"></stop></linearGradient></defs></svg>